<!DOCTYPE svg PUBLIC "-//W3C//DTD SVG 1.1//EN" "http://www.w3.org/Graphics/SVG/1.1/DTD/svg11.dtd">
<!-- Uploaded to: SVG Repo, www.svgrepo.com, Transformed by: SVG Repo Mixer Tools -->
<svg width="800px" height="800px" viewBox="0 0 24 24" fill="none" xmlns="http://www.w3.org/2000/svg">
<g id="SVGRepo_bgCarrier" stroke-width="0"/>
<g id="SVGRepo_tracerCarrier" stroke-linecap="round" stroke-linejoin="round"/>
<g id="SVGRepo_iconCarrier"> <path fill-rule="evenodd" clip-rule="evenodd" d="M12.4722 8H16C18.2091 8 20 9.79086 20 12C20 14.2091 18.2091 16 16 16H12.4722C13.4223 14.9385 14 13.5367 14 12C14 10.4633 13.4223 9.06151 12.4722 8ZM8 8C5.79086 8 4 9.79086 4 12C4 14.2091 5.79086 16 8 16C10.2091 16 12 14.2091 12 12C12 9.79086 10.2091 8 8 8ZM8 6H16C19.3137 6 22 8.68629 22 12C22 15.3137 19.3137 18 16 18H8C4.68629 18 2 15.3137 2 12C2 8.68629 4.68629 6 8 6Z" fill="#000000"/> </g>
</svg>